<?xml version="1.0" standalone="no"?>
<!DOCTYPE svg PUBLIC "-//W3C//DTD SVG 20010904//EN"
 "http://www.w3.org/TR/2001/REC-SVG-20010904/DTD/svg10.dtd">
<svg version="1.0" xmlns="http://www.w3.org/2000/svg"
 width="500.000000pt" height="500.000000pt" viewBox="0 0 500.000000 500.000000"
 preserveAspectRatio="xMidYMid meet">
<metadata>
Created by potrace 1.14, written by Peter Selinger 2001-2017
</metadata>
<g transform="translate(0.000000,500.000000) scale(0.100000,-0.100000)"
fill="#000000" stroke="none">
<path d="M2311 3830 c-152 -32 -331 -126 -331 -173 0 -49 51 -62 100 -27 44
32 149 78 215 95 33 8 101 15 155 15 181 0 332 -62 461 -190 85 -84 135 -167
171 -280 34 -110 32 -263 -6 -377 -69 -211 -261 -390 -472 -439 -254 -59 -496
28 -666 238 -152 188 -181 458 -74 688 22 47 24 57 12 75 -8 12 -24 20 -42 20
-24 0 -33 -8 -56 -50 -61 -113 -89 -293 -68 -436 42 -292 232 -520 510 -614
l65 -22 3 -92 3 -91 -53 0 c-94 0 -118 -38 -118 -185 l0 -81 63 -62 63 -62
226 0 227 0 3 -72 c3 -69 4 -73 30 -82 56 -20 58 -9 58 254 l0 238 -31 26
c-24 20 -41 26 -80 26 l-49 0 0 89 0 89 52 17 c249 81 446 298 509 561 19 80
14 267 -9 355 -66 248 -255 447 -500 527 -61 19 -102 25 -202 28 -69 2 -145
-1 -169 -6z m209 -1577 l0 -84 -67 3 -68 3 -3 69 c-2 38 -1 75 2 81 3 8 27 12
70 12 l66 -1 0 -83z m170 -278 l0 -105 -240 0 -240 0 0 105 0 105 240 0 240 0
0 -105z"/>
<path d="M2380 3580 c-119 -19 -207 -66 -294 -161 -229 -247 -151 -639 156
-784 358 -169 755 123 707 520 -33 267 -299 466 -569 425z m241 -126 c161 -76
260 -258 230 -426 -23 -129 -108 -243 -226 -303 -56 -28 -68 -30 -170 -30 -98
0 -116 3 -167 27 -279 130 -319 504 -75 688 78 59 147 80 252 77 76 -2 100 -7
156 -33z"/>
<path d="M2415 3356 c-16 -24 -16 -28 -1 -51 12 -17 25 -25 47 -25 38 0 97
-24 128 -53 30 -28 60 -93 61 -132 0 -38 16 -55 51 -55 41 0 53 22 45 82 -18
134 -128 241 -261 255 -49 5 -54 4 -70 -21z"/>
<path d="M2716 1454 c-11 -10 -16 -34 -16 -73 0 -54 2 -59 45 -101 l45 -44 0
107 c0 95 -2 107 -19 117 -27 14 -37 13 -55 -6z"/>
</g>
</svg>
